# xmcd
# 
# Track frame offsets:
#     150
#     21078
#     43357
#     63005
# 
# Disc length: 1054
# 
# Revision: 0
# Processed by: cddbd v1.5.2PL0 Copyright (c) Steve Scherf et al.
# Submitted via: fre:ac v1.0.17
# 
DISCID=2d041c04
DTITLE=Peter Frampton - Frampton Comes Alive! 
DYEAR=0
DGENRE=
TTITLE0=Nowhere's Too Far For My Baby
TTITLE1=White Sugar
TTITLE2=Just The Time Of The Year
TTITLE3=Days Dawning
EXTD=additional tracks
EXTT0=
EXTT1=
EXTT2=
EXTT3=
PLAYORDER=
